<svg width="436" height="40" viewBox="0 0 436 40" fill="none" xmlns="http://www.w3.org/2000/svg">
<path d="M26.492 38.817L0.75 36.072H27.102L26.492 38.817ZM27.834 32.9L2.153 30.155H28.505L27.834 32.9ZM29.237 27.044L3.556 24.299H29.847L29.237 27.044ZM30.579 21.188L4.959 18.443H31.25L30.579 21.188ZM31.982 15.332L6.362 12.587H32.592L31.982 15.332ZM33.324 9.476L7.765 6.731H33.995L33.324 9.476ZM34.727 3.62L9.168 0.875H35.337L34.727 3.62ZM40.4 39H28.322L37.228 0.875H52.356L53.454 20.273H53.881L61.811 0.875H76.939L72.425 39H60.286L62.848 20.517H62.421L54.796 39H45.951L44.67 20.517H44.365L40.4 39ZM109.479 6.121C113.871 6.121 117.002 6.975 118.873 8.683C120.743 10.3503 121.679 12.9733 121.679 16.552C121.679 18.3007 121.455 20.4153 121.008 22.896C119.991 28.752 118.202 33.022 115.64 35.706C113.078 38.39 109.052 39.732 103.562 39.732C99.251 39.732 96.1807 38.8983 94.3507 37.231C92.5207 35.523 91.6057 32.9 91.6057 29.362C91.6057 27.532 91.8294 25.3767 92.2767 22.896C93.2934 17.04 95.0624 12.7903 97.5837 10.147C100.105 7.463 104.07 6.121 109.479 6.121ZM105.331 30.46C106.51 30.46 107.384 30.3177 107.954 30.033C108.564 29.7483 108.97 29.118 109.174 28.142L111.492 15.393H107.771C106.632 15.393 105.737 15.5353 105.087 15.82C104.477 16.1047 104.111 16.7147 103.989 17.65L101.732 30.46H105.331ZM90.1417 24.299C89.979 25.5597 89.8774 26.4137 89.8367 26.861L65.8027 24.299H90.1417ZM91.3007 18.443L90.7517 21.005L66.9007 18.443H91.3007ZM89.7757 30.155C89.7757 30.8057 89.857 31.6597 90.0197 32.717L66.0467 30.155H89.7757ZM93.4357 12.587C92.9477 13.6443 92.602 14.4577 92.3987 15.027L69.3407 12.587H93.4357ZM91.0567 36.072C91.5447 37.048 92.0734 37.8003 92.6427 38.329L71.3537 36.072H91.0567ZM98.7427 6.731C97.7667 7.30033 96.933 7.97133 96.2417 8.744L77.5147 6.731H98.7427ZM156.07 39L149.787 26.922H149.543L147.408 39H137.16L142.772 6.731H151.068L157.412 18.748H157.778L159.852 6.731H170.039L164.366 39H156.07ZM135.147 38.817L109.283 36.072H135.635L135.147 38.817ZM137.221 27.044L111.357 24.299H137.709L137.221 27.044ZM138.258 21.188L112.394 18.443H138.746L138.258 21.188ZM139.295 15.332L113.431 12.587H139.783L139.295 15.332ZM140.332 9.476L114.468 6.731H140.759L140.332 9.476ZM136.184 32.9L110.32 30.155H136.672L136.184 32.9ZM203.379 6.731C207.811 6.731 210.983 7.524 212.895 9.11C214.806 10.696 215.762 13.2377 215.762 16.735C215.762 18.4023 215.538 20.456 215.091 22.896C214.074 28.6707 212.305 32.7983 209.784 35.279C207.303 37.7597 203.277 39 197.706 39H184.042L189.654 6.731H203.379ZM201.915 15.637H198.377L195.815 30.277H199.353C200.532 30.277 201.427 30.1347 202.037 29.85C202.687 29.5247 203.094 28.8943 203.257 27.959L205.026 17.894C205.066 17.7313 205.087 17.406 205.087 16.918C205.087 16.064 204.029 15.637 201.915 15.637ZM182.029 38.817L156.165 36.072H182.517L182.029 38.817ZM184.103 27.044L158.239 24.299H184.591L184.103 27.044ZM185.14 21.188L159.276 18.443H185.628L185.14 21.188ZM186.177 15.332L160.313 12.587H186.665L186.177 15.332ZM187.214 9.476L161.35 6.731H187.641L187.214 9.476ZM183.066 32.9L157.202 30.155H183.554L183.066 32.9ZM252.995 25.885H243.906L243.174 30.033H254.459L252.873 39H231.34L236.952 6.731H258.424L255.557 15.881H245.614L244.882 20.029H254.032L252.995 25.885ZM229.327 38.817L203.463 36.072H229.815L229.327 38.817ZM231.401 27.044L205.537 24.299H231.889L231.401 27.044ZM232.438 21.188L206.574 18.443H232.926L232.438 21.188ZM233.475 15.332L207.611 12.587H233.963L233.475 15.332ZM234.512 9.476L208.648 6.731H234.939L234.512 9.476ZM230.364 32.9L204.5 30.155H230.852L230.364 32.9ZM292.112 29.789H284.548L282.962 39H271.372L278.082 0.875H296.382C303.295 0.875 306.752 4.08767 306.752 10.513C306.752 13.563 306.325 16.3283 305.471 18.809C304.617 21.249 303.661 23.201 302.604 24.665C301.587 26.0883 300.164 27.3083 298.334 28.325C296.544 29.301 294.47 29.789 292.112 29.789ZM288.94 20.029C290.322 20.029 291.359 19.8867 292.051 19.602C292.783 19.2767 293.25 18.565 293.454 17.467C293.982 14.4577 294.247 12.8107 294.247 12.526C294.247 11.7533 293.942 11.245 293.332 11.001C292.722 10.757 291.807 10.635 290.587 10.635H287.903L286.256 20.029H288.94ZM269.542 38.817L243.678 36.072H270.03L269.542 38.817ZM271.616 27.044L245.752 24.299H272.104L271.616 27.044ZM273.629 15.332L247.826 12.587H274.117L273.629 15.332ZM274.666 9.476L248.863 6.731H275.154L274.666 9.476ZM270.579 32.9L244.715 30.155H271.067L270.579 32.9ZM275.703 3.62L249.9 0.875H276.191L275.703 3.62ZM272.592 21.188L246.789 18.443H273.08L272.592 21.188ZM336.859 6.121C341.251 6.121 344.382 6.975 346.253 8.683C348.123 10.3503 349.059 12.9733 349.059 16.552C349.059 18.3007 348.835 20.4153 348.388 22.896C347.371 28.752 345.582 33.022 343.02 35.706C340.458 38.39 336.432 39.732 330.942 39.732C326.631 39.732 323.561 38.8983 321.731 37.231C319.901 35.523 318.986 32.9 318.986 29.362C318.986 27.532 319.209 25.3767 319.657 22.896C320.673 17.04 322.442 12.7903 324.964 10.147C327.485 7.463 331.45 6.121 336.859 6.121ZM332.711 30.46C333.89 30.46 334.764 30.3177 335.334 30.033C335.944 29.7483 336.35 29.118 336.554 28.142L338.872 15.393H335.151C334.012 15.393 333.117 15.5353 332.467 15.82C331.857 16.1047 331.491 16.7147 331.369 17.65L329.112 30.46H332.711ZM317.522 24.299C317.359 25.5597 317.257 26.4137 317.217 26.861L293.183 24.299H317.522ZM318.681 18.443L318.132 21.005L294.281 18.443H318.681ZM317.156 30.155C317.156 30.8057 317.237 31.6597 317.4 32.717L293.427 30.155H317.156ZM320.816 12.587C320.328 13.6443 319.982 14.4577 319.779 15.027L296.721 12.587H320.816ZM318.437 36.072C318.925 37.048 319.453 37.8003 320.023 38.329L298.734 36.072H318.437ZM326.123 6.731C325.147 7.30033 324.313 7.97133 323.622 8.744L304.895 6.731H326.123ZM337.578 36.072H363.93L363.076 38.817L337.578 36.072ZM368.566 12.587C368.322 13.2377 368.057 14.1527 367.773 15.332L342.275 12.587H368.566ZM367.041 20.7V21.188L341.177 18.443H367.163C367.081 19.419 367.041 20.1713 367.041 20.7ZM365.028 32.839L339.591 30.155H365.882L365.028 32.839ZM372.775 6.731C371.677 7.54433 370.843 8.39833 370.274 9.293L346.484 6.731H372.775ZM367.59 24.299C367.956 25.3563 368.545 26.2713 369.359 27.044L343.556 24.299H367.59ZM391.929 16.308C389.163 15.6573 386.805 15.332 384.853 15.332C382.901 15.332 381.457 15.393 380.522 15.515L380.217 17.284L383.267 17.65C389.814 18.504 393.088 21.2083 393.088 25.763C393.088 26.2917 392.966 27.288 392.722 28.752C392.478 30.1753 392.071 31.558 391.502 32.9C390.932 34.242 390.2 35.34 389.306 36.194C388.452 37.0073 387.598 37.6783 386.744 38.207C385.93 38.695 384.873 39.0407 383.572 39.244C381.538 39.5693 378.814 39.732 375.398 39.732C372.022 39.732 368.606 39.2643 365.15 38.329L368.139 29.301C371.311 30.1957 374.076 30.643 376.435 30.643C378.834 30.643 380.522 30.582 381.498 30.46L381.803 28.508L377.96 28.081C374.666 27.715 372.327 26.9423 370.945 25.763C369.562 24.5837 368.871 22.896 368.871 20.7C368.871 19.8867 368.972 18.87 369.176 17.65C369.989 13.2987 371.453 10.2893 373.568 8.622C375.682 6.95466 378.895 6.121 383.206 6.121C387.557 6.121 391.441 6.548 394.857 7.402L391.929 16.308ZM434.127 15.881H427.539L423.513 39H412.777L416.803 15.881H410.032L411.679 6.731H435.774L434.127 15.881ZM410.947 38.817L385.083 36.072H411.435L410.947 38.817ZM413.021 27.044L387.157 24.299H413.509L413.021 27.044ZM414.058 21.188L388.194 18.443H414.546L414.058 21.188ZM408.202 15.332L382.338 12.587H408.69L408.202 15.332ZM409.239 9.476L383.375 6.731H409.666L409.239 9.476ZM411.984 32.9L386.12 30.155H412.472L411.984 32.9Z" fill="white"/>
</svg>
